<?xml version="1.0" encoding="UTF-8"?>
<!DOCTYPE svg PUBLIC "-//W3C//DTD SVG 1.1//EN" "http://www.w3.org/Graphics/SVG/1.1/DTD/svg11.dtd">
<svg xmlns="http://www.w3.org/2000/svg" version="1.1" width="1024px" height="1024px" style="shape-rendering:geometricPrecision; text-rendering:geometricPrecision; image-rendering:optimizeQuality; fill-rule:evenodd; clip-rule:evenodd" xmlns:xlink="http://www.w3.org/1999/xlink">
<g><path style="opacity:1" fill="#000000" d="M -0.5,-0.5 C 340.833,-0.5 682.167,-0.5 1023.5,-0.5C 1023.5,340.833 1023.5,682.167 1023.5,1023.5C 682.167,1023.5 340.833,1023.5 -0.5,1023.5C -0.5,682.167 -0.5,340.833 -0.5,-0.5 Z"/></g>
<g><path style="opacity:1" fill="#fefefe" d="M 200.5,328.5 C 295.332,327.501 390.332,327.167 485.5,327.5C 485.5,361.5 485.5,395.5 485.5,429.5C 402.167,429.5 318.833,429.5 235.5,429.5C 224.405,395.546 212.739,361.879 200.5,328.5 Z"/></g>
<g><path style="opacity:1" fill="#fefefe" d="M 612.5,327.5 C 655.835,327.333 699.168,327.5 742.5,328C 656.396,419.439 569.563,510.273 482,600.5C 481.667,635.833 481.333,671.167 481,706.5C 478.317,709.016 475.817,711.683 473.5,714.5C 444.506,715.667 415.506,715.833 386.5,715C 384,712.5 381.5,710 379,707.5C 378.009,628.11 378.342,548.776 380,469.5C 382.455,464.851 386.288,462.017 391.5,461C 421.5,460.667 451.5,460.333 481.5,460C 525.007,415.66 568.674,371.493 612.5,327.5 Z"/></g>
<g><path style="opacity:1" fill="#fefefe" d="M 581.5,533.5 C 642.66,593.826 703.326,654.66 763.5,716C 714.167,716.667 664.833,716.667 615.5,716C 580,680.5 544.5,645 509,609.5C 508.333,608.833 508.333,608.167 509,607.5C 533.759,583.243 557.925,558.576 581.5,533.5 Z"/></g>
</svg>
